<svg xmlns="http://www.w3.org/2000/svg" width="24" height="24" viewBox="0 0 24 24" fill="none" class=""><path fill-rule="evenodd" clip-rule="evenodd" d="M6.19999 5.7C6.19999 5.53431 6.3343 5.4 6.49999 5.4H17.5C17.6657 5.4 17.8 5.53431 17.8 5.7V8H6.19999V5.7ZM4.79999 8V5.7C4.79999 4.76112 5.5611 4 6.49999 4H17.5C18.4389 4 19.2 4.76112 19.2 5.7V8V8.7V18.7C19.2 19.6389 18.4389 20.4 17.5 20.4H6.49999C5.5611 20.4 4.79999 19.6389 4.79999 18.7V8.7V8ZM6.19999 9.4V18.7C6.19999 18.8657 6.3343 19 6.49999 19H17.5C17.6657 19 17.8 18.8657 17.8 18.7V9.4H6.19999ZM12 16.55C13.2979 16.55 14.35 15.4979 14.35 14.2C14.35 12.9021 13.2979 11.85 12 11.85C10.7021 11.85 9.64999 12.9021 9.64999 14.2C9.64999 15.4979 10.7021 16.55 12 16.55ZM12 17.95C14.0711 17.95 15.75 16.2711 15.75 14.2C15.75 12.1289 14.0711 10.45 12 10.45C9.92892 10.45 8.24999 12.1289 8.24999 14.2C8.24999 16.2711 9.92892 17.95 12 17.95ZM13.3 6.7C13.3 6.3134 13.6134 6 14 6H16C16.3866 6 16.7 6.3134 16.7 6.7C16.7 7.0866 16.3866 7.4 16 7.4H14C13.6134 7.4 13.3 7.0866 13.3 6.7ZM7.99999 6C7.61339 6 7.29999 6.3134 7.29999 6.7C7.29999 7.0866 7.61339 7.4 7.99999 7.4H9.99999C10.3866 7.4 10.7 7.0866 10.7 6.7C10.7 6.3134 10.3866 6 9.99999 6H7.99999Z" fill="currentColor"></path></svg>