<svg xmlns="http://www.w3.org/2000/svg" width="24" height="24" viewBox="0 0 24 24" fill="none" class=""><path d="M8.25 10C8.25 9.58579 8.58579 9.25 9 9.25H15C15.4142 9.25 15.75 9.58579 15.75 10C15.75 10.4142 15.4142 10.75 15 10.75H9C8.58579 10.75 8.25 10.4142 8.25 10Z" fill="currentColor"></path><path d="M9 12.25C8.58579 12.25 8.25 12.5858 8.25 13C8.25 13.4142 8.58579 13.75 9 13.75H12C12.4142 13.75 12.75 13.4142 12.75 13C12.75 12.5858 12.4142 12.25 12 12.25H9Z" fill="currentColor"></path><path fill-rule="evenodd" clip-rule="evenodd" d="M6.25 16.9213C6.20067 16.8881 6.14788 16.8514 6.09213 16.8111C5.77226 16.5801 5.35099 16.2286 4.93056 15.7381C4.08286 14.7491 3.25 13.206 3.25 11C3.25 9.47314 4.14534 7.78123 5.63479 6.49488C7.14532 5.19033 9.3191 4.25 12 4.25C14.6809 4.25 16.8547 5.19033 18.3652 6.49488C19.8497 7.77697 20.7441 9.46194 20.75 10.9848C20.8033 12.4288 20.2336 14.3582 18.851 15.9324C17.4407 17.5382 15.2074 18.75 12 18.75H10.1771L7.33541 20.1708C7.10292 20.2871 6.82681 20.2746 6.6057 20.138C6.38459 20.0013 6.25 19.7599 6.25 19.5V16.9213ZM6.61521 7.63012C5.35466 8.71877 4.75 10.0269 4.75 11C4.75 12.794 5.41714 14.0009 6.06944 14.7619C6.39901 15.1464 6.72774 15.4199 6.97037 15.5951C7.09136 15.6825 7.18984 15.7447 7.25471 15.7833C7.2871 15.8025 7.31098 15.8159 7.32493 15.8235L7.3382 15.8306L7.33667 15.8298C7.59038 15.957 7.75 16.2162 7.75 16.5V18.2865L9.66459 17.3292C9.76873 17.2771 9.88357 17.25 10 17.25H12C14.7926 17.25 16.6093 16.2118 17.724 14.9426C18.8616 13.6472 19.2928 12.0844 19.2506 11.03C19.2502 11.02 19.25 11.01 19.25 11C19.25 10.0269 18.6453 8.71877 17.3848 7.63012C16.1453 6.55967 14.3191 5.75 12 5.75C9.6809 5.75 7.85468 6.55967 6.61521 7.63012Z" fill="currentColor"></path></svg>