<svg xmlns="http://www.w3.org/2000/svg" width="24" height="24" viewBox="0 0 24 24" fill="none" class=""><path fill-rule="evenodd" clip-rule="evenodd" d="M5.4 14.6V6.4H18.6V14.6H5.4ZM4 6C4 5.44771 4.44772 5 5 5H19C19.5523 5 20 5.44772 20 6V15C20 15.5523 19.5523 16 19 16H14.2V18.3H15.5C15.8866 18.3 16.2 18.6134 16.2 19C16.2 19.3866 15.8866 19.7 15.5 19.7H8.5C8.1134 19.7 7.8 19.3866 7.8 19C7.8 18.6134 8.1134 18.3 8.5 18.3H9.8V16H5C4.44772 16 4 15.5523 4 15V6ZM11.2 18.3H12.8V16H11.2V18.3ZM10.495 8.49497C10.7683 8.22161 10.7683 7.77839 10.495 7.50503C10.2216 7.23166 9.77839 7.23166 9.50502 7.50503L6.50503 10.505C6.23166 10.7784 6.23166 11.2216 6.50503 11.495C6.77839 11.7683 7.22161 11.7683 7.49497 11.495L10.495 8.49497ZM11.495 10.005C11.7683 10.2784 11.7683 10.7216 11.495 10.995L9.99497 12.495C9.72161 12.7683 9.27839 12.7683 9.00503 12.495C8.73166 12.2216 8.73166 11.7784 9.00503 11.505L10.505 10.005C10.7784 9.73166 11.2216 9.73166 11.495 10.005Z" fill="currentColor"></path></svg>