<svg xmlns="http://www.w3.org/2000/svg" width="24" height="24" viewBox="0 0 24 24" fill="none" class=""><path fill-rule="evenodd" clip-rule="evenodd" d="M8.5 4.6998C7.78203 4.6998 7.2 5.28183 7.2 5.9998V17.9998C7.2 18.7178 7.78203 19.2998 8.5 19.2998H15.5C16.218 19.2998 16.8 18.7178 16.8 17.9998V5.9998C16.8 5.28183 16.218 4.6998 15.5 4.6998H8.5ZM5.8 5.9998C5.8 4.50864 7.00883 3.2998 8.5 3.2998H15.5C16.9912 3.2998 18.2 4.50864 18.2 5.9998V17.9998C18.2 19.491 16.9912 20.6998 15.5 20.6998H8.5C7.00883 20.6998 5.8 19.491 5.8 17.9998V5.9998ZM9.8 6.9998C9.8 6.61321 10.1134 6.2998 10.5 6.2998H13.5C13.8866 6.2998 14.2 6.61321 14.2 6.9998C14.2 7.3864 13.8866 7.6998 13.5 7.6998H10.5C10.1134 7.6998 9.8 7.3864 9.8 6.9998ZM12 17.9998C12.6904 17.9998 13.25 17.4402 13.25 16.7498C13.25 16.0594 12.6904 15.4998 12 15.4998C11.3096 15.4998 10.75 16.0594 10.75 16.7498C10.75 17.4402 11.3096 17.9998 12 17.9998Z" fill="currentColor"></path></svg>