<svg width="15" height="14" viewBox="0 0 15 14" fill="none" xmlns="http://www.w3.org/2000/svg">
<path d="M7.14131 0.726793C7.28803 0.429495 7.71197 0.429496 7.85869 0.726794L9.61113 4.27761C9.66939 4.39567 9.78202 4.47749 9.9123 4.49643L13.8309 5.06583C14.1589 5.1135 14.29 5.51669 14.0525 5.7481L11.217 8.51203C11.1228 8.60392 11.0798 8.73632 11.102 8.86608L11.7714 12.7688C11.8274 13.0956 11.4845 13.3447 11.191 13.1905L7.68614 11.3479C7.56961 11.2866 7.43039 11.2866 7.31386 11.3479L3.809 13.1905C3.51555 13.3447 3.17258 13.0956 3.22862 12.7688L3.89799 8.86608C3.92024 8.73632 3.87722 8.60392 3.78295 8.51203L0.947457 5.7481C0.71005 5.51669 0.841053 5.1135 1.16914 5.06583L5.0877 4.49643C5.21798 4.47749 5.33061 4.39567 5.38887 4.27761L7.14131 0.726793Z" fill="#0072BC"/>
</svg>
