<svg xmlns="http://www.w3.org/2000/svg" width="24" height="24" viewBox="0 0 24 24" fill="none" class=""><path d="M18.3333 16.313L21 16.3333V10.9999C21 10.3095 20.357 9.66667 19.6667 9.66667C18.9763 9.66667 18.3333 10.3095 18.3333 10.9999V16.313ZM18.3333 16.313V17.6667M18.3333 16.313V15.6665C18.3333 13.8256 16.8409 12.3332 15 12.3332H9C7.15905 12.3332 5.66667 13.8256 5.66667 15.6665V16.3332M18.3333 16.313L5.66667 16.3332M5.66667 16.3332V10.9999M5.66667 16.3332H3V10.9999C3 10.3095 3.64298 9.66653 4.33333 9.66653C5.02369 9.66653 5.66667 10.3095 5.66667 10.9999M5.66667 16.3332V17.6665M5.66667 10.9999V9.66653C5.66667 7.82559 6.49238 7 8.33333 7H11C11.9205 7 12 7.74619 12 8.66667M12 8.66667V9.66653M12 8.66667C12 7.74619 12.0795 7 13 7H15C16.8409 7 18.3333 7.82559 18.3333 9.66653V12.3333" stroke="currentColor" stroke-width="1.4" stroke-linecap="round" stroke-linejoin="round"></path></svg>