<svg xmlns="http://www.w3.org/2000/svg" width="24" height="24" viewBox="0 0 24 24" fill="none" class=""><path fill-rule="evenodd" clip-rule="evenodd" d="M19.0519 0.962067C19.3488 0.714573 19.7902 0.754699 20.0377 1.05169L22.5377 4.05169C22.6581 4.19618 22.7153 4.38304 22.6964 4.57017C22.6775 4.75729 22.5841 4.92894 22.4373 5.04643L19.9373 7.04642C19.8131 7.14571 19.6589 7.19981 19.5 7.19981H18.2813L14.9717 10.3715L16.2297 11.523C16.9991 11.9699 17.1957 12.8799 16.9599 13.5873C16.9538 13.6057 16.9469 13.6239 16.9393 13.6417C16.6506 14.3153 16.0383 15.0838 15.1174 15.314C14.8537 15.3799 14.505 15.5199 14.3882 15.5782C14.3788 15.583 14.3692 15.5875 14.3595 15.5918C13.887 15.8018 13.5555 16.2921 13.502 16.7743L13.4901 16.8822C13.4172 17.5465 13.321 18.4223 12.9565 19.1514L12.9503 19.1637L12.9502 19.1637C11.9911 20.9905 10.2676 21.9256 8.42897 22.0159C6.60384 22.1055 4.67003 21.3678 3.19069 19.8884C1.71136 18.4091 0.97368 16.4753 1.06326 14.6502C1.1535 12.8115 2.08864 11.088 3.91545 10.129L3.92772 10.1225L3.92778 10.1227C4.65687 9.7581 5.53269 9.66198 6.19696 9.58907L6.30488 9.57717C6.78365 9.52398 7.27044 9.19676 7.48285 8.72961C7.67992 8.24416 8.04801 7.69643 8.42511 7.31933C9.99534 5.7491 12.4287 5.50416 14.3719 6.58344L15.8 5.20294V3.99982C15.8 3.79208 15.8923 3.59506 16.0519 3.46207L19.0519 0.962067ZM13.3021 7.61758C11.9484 7.05082 10.4102 7.31412 9.41506 8.30928C9.16141 8.56293 8.89857 8.9598 8.77692 9.26392C8.77366 9.27209 8.77023 9.2802 8.76666 9.28824C8.34216 10.2434 7.4049 10.8636 6.45949 10.9686C5.71006 11.0519 5.05874 11.1244 4.55986 11.3719C3.21847 12.0789 2.52984 13.3278 2.46157 14.7188C2.39253 16.1255 2.96346 17.6813 4.18064 18.8985C5.39782 20.1157 6.95363 20.6866 8.36035 20.6176C9.75136 20.5493 11.0003 19.8607 11.7073 18.5192C11.9547 18.0204 12.0273 17.3691 12.1105 16.6196C12.2151 15.6789 12.8297 14.7462 13.7769 14.3188C13.9838 14.2174 14.4159 14.0463 14.7778 13.9558C15.1176 13.8709 15.4493 13.5429 15.639 13.1209C15.6636 13.0313 15.659 12.9421 15.6347 12.8722C15.6105 12.8025 15.5688 12.754 15.5069 12.7231C15.4489 12.6941 15.3952 12.6572 15.3473 12.6133L13.9588 11.3422L12.4844 12.7552C12.3501 12.8839 12.1701 12.9539 11.9841 12.9496C11.7981 12.9454 11.6215 12.8673 11.4932 12.7327L10.303 11.4833C10.0377 11.2048 10.0467 10.7645 10.3233 10.4972L13.3021 7.61758ZM15.9837 6.97253C16.0661 7.06247 16.1717 7.13081 16.291 7.16808L12.0226 11.2587L11.7959 11.0207L15.9837 6.97253ZM17.2 5.79981V5.50742V5.49208V4.32768L19.4104 2.48571L21.005 4.39933L19.2544 5.79981H17.2ZM3.93545 15.6951C4.20881 15.4217 4.65203 15.4217 4.92539 15.6951L7.30468 18.0744C7.57804 18.3477 7.57804 18.791 7.30468 19.0643C7.03131 19.3377 6.58809 19.3377 6.31473 19.0643L3.93545 16.685C3.66208 16.4117 3.66208 15.9685 3.93545 15.6951ZM9.6 14.4998C9.6 15.1073 9.10751 15.5998 8.5 15.5998C7.89249 15.5998 7.4 15.1073 7.4 14.4998C7.4 13.8923 7.89249 13.3998 8.5 13.3998C9.10751 13.3998 9.6 13.8923 9.6 14.4998ZM11 14.4998C11 15.8805 9.88071 16.9998 8.5 16.9998C7.11929 16.9998 6 15.8805 6 14.4998C6 13.1191 7.11929 11.9998 8.5 11.9998C9.88071 11.9998 11 13.1191 11 14.4998Z" fill="currentColor"></path></svg>