<svg class="ProfileItem_icon__3Gmbu" width="24" height="24" viewBox="0 0 24 24" fill="#002137" xmlns="http://www.w3.org/2000/svg"><path fill-rule="evenodd" clip-rule="evenodd" d="M6.53785 7.66601C6.07776 8.21811 5.8002 8.96099 5.8002 9.69232C5.8002 10.0297 5.9527 10.4875 6.32629 11.0805C6.69275 11.6623 7.22346 12.2988 7.86581 12.9779C8.6637 13.8213 9.56378 14.6615 10.4704 15.5077C10.9577 15.9627 11.447 16.4194 11.9233 16.8793C12.3995 16.4194 12.8888 15.9627 13.3762 15.5077C14.2828 14.6615 15.1828 13.8213 15.9807 12.9779C16.6231 12.2988 17.1538 11.6623 17.5203 11.0805C17.8938 10.4875 18.0463 10.0297 18.0463 9.69232C18.0463 8.96099 17.7688 8.21811 17.3087 7.66601C16.8521 7.11804 16.2558 6.80001 15.6156 6.80001C14.1212 6.80001 13.4036 7.49718 12.489 8.41185C12.3389 8.56188 12.1354 8.64617 11.9233 8.64617C11.7111 8.64617 11.5076 8.56188 11.3576 8.41185C10.4429 7.49718 9.72537 6.80001 8.23096 6.80001C7.59075 6.80001 6.99448 7.11804 6.53785 7.66601ZM5.30869 6.64171C6.00591 5.80506 7.02502 5.20001 8.23096 5.20001C10.006 5.20001 11.0837 5.94944 11.9233 6.72847C12.7629 5.94944 13.8405 5.20001 15.6156 5.20001C16.8215 5.20001 17.8406 5.80506 18.5378 6.64171C19.2316 7.47422 19.6463 8.5775 19.6463 9.69232C19.6463 10.4699 19.314 11.2349 18.874 11.9333C18.427 12.643 17.8154 13.3666 17.1431 14.0774C16.3229 14.9444 15.3425 15.8608 14.4003 16.7414C13.8269 17.2773 13.2677 17.7999 12.7673 18.2902C12.2985 18.7496 11.548 18.7496 11.0792 18.2902C10.5788 17.7999 10.0196 17.2773 9.44626 16.7414C8.50408 15.8608 7.52368 14.9444 6.70347 14.0774C6.03109 13.3666 5.41958 12.643 4.97251 11.9333C4.53255 11.2349 4.2002 10.4699 4.2002 9.69232C4.2002 8.5775 4.61494 7.47422 5.30869 6.64171Z"></path></svg>