<svg xmlns="http://www.w3.org/2000/svg" width="24" height="24" viewBox="0 0 24 24" fill="none" class="styles_svg__2H3-f"><path fill-rule="evenodd" clip-rule="evenodd" d="M7.80421 7.29282C7.79051 9.64762 9.71686 11.5967 12.0661 11.6047C14.4392 11.6129 16.3789 9.70815 16.391 7.35816C16.4029 4.95262 14.4948 3.00643 12.1177 3.00002C9.74533 2.99343 7.81773 4.91202 7.80421 7.29282ZM12.1006 5.19743C13.2666 5.1985 14.197 6.12931 14.2011 7.29852C14.205 8.46755 13.2771 9.40441 12.1115 9.40851C10.9423 9.41278 10.0038 8.48856 9.99511 7.3238C9.98603 6.1439 10.9248 5.19618 12.1006 5.19743Z" fill="#FA9019"></path><path d="M7.74311 13.7164C8.75966 14.5121 9.947 14.8367 11.2638 14.9741C11.2281 15.0124 11.1972 15.0461 11.1692 15.0767C11.1243 15.1257 11.0866 15.1668 11.0473 15.2065C10.8597 15.3947 10.6721 15.583 10.4845 15.7713C9.70646 16.5521 8.92829 17.3331 8.14838 18.1125C7.94824 18.3124 7.80485 18.5353 7.79061 18.8272C7.76998 19.2586 8.03737 19.6878 8.45758 19.8917C8.85288 20.0838 9.25851 20.0233 9.59937 19.6869C10.3585 18.9379 11.1132 18.1846 11.8557 17.4195C12.0415 17.2283 12.1427 17.1867 12.3532 17.4069C12.8394 17.9161 13.3386 18.4128 13.8379 18.9095C14.0812 19.1516 14.3246 19.3937 14.5665 19.6373C14.7591 19.8315 14.976 19.97 15.2541 19.9892C15.693 20.0193 16.1406 19.7382 16.3405 19.3109C16.5234 18.9199 16.454 18.5031 16.1219 18.167C15.5022 17.5399 14.8794 16.9156 14.2567 16.2914C13.8998 15.9336 13.5428 15.5758 13.1865 15.2175C13.1358 15.1665 13.0944 15.1212 13.0315 15.0523C13.0101 15.0288 12.9862 15.0026 12.9586 14.9725C13.6789 14.8864 14.4067 14.7566 15.0712 14.4988C15.7739 14.226 16.4064 13.8352 16.9323 13.295C17.2751 12.9427 17.2786 12.4997 17.0004 12.0458C16.7568 11.6485 16.3336 11.4816 15.8798 11.5982C15.6464 11.6584 15.445 11.7763 15.2566 11.9209C13.3549 13.201 10.7524 13.165 8.85787 11.8623C8.765 11.7978 8.66804 11.7378 8.56628 11.6898C8.04075 11.4417 7.53514 11.5573 7.23395 11.9892C6.88188 12.494 6.92671 12.9838 7.37165 13.4114C7.46368 13.4998 7.56538 13.5786 7.66692 13.6572C7.69238 13.6769 7.71783 13.6966 7.74311 13.7164Z" fill="#FA9019"></path></svg>