<svg xmlns="http://www.w3.org/2000/svg" width="24" height="24" viewBox="0 0 24 24" fill="none" class=""><path d="M17.562 6.41469C18.8385 7.69116 19.6692 9.2952 19.9698 11.0579C20.0137 11.3045 19.8448 11.5408 19.5983 11.578C19.5956 11.5783 19.5929 11.5787 19.5902 11.579C19.5665 11.582 19.5449 11.5847 19.5207 11.5847C19.3012 11.5847 19.1087 11.4294 19.0715 11.2065C18.8048 9.63289 18.0618 8.1977 16.9204 7.0563C15.779 5.91828 14.3439 5.17199 12.7702 4.90521C12.5203 4.86131 12.3548 4.6283 12.3954 4.37841C12.4393 4.1319 12.6723 3.96305 12.9188 4.00695C14.6815 4.3075 16.2856 5.13822 17.562 6.41469Z" fill="currentColor"></path><path fill-rule="evenodd" clip-rule="evenodd" d="M16.6334 13.9114C16.3059 13.5704 15.9108 13.388 15.492 13.388C15.0767 13.388 14.6782 13.567 14.3371 13.908L13.27 14.9718C13.212 14.9405 13.154 14.9108 13.0969 14.8815C13.0677 14.8665 13.0386 14.8516 13.01 14.8367C12.8884 14.7759 12.7736 14.7185 12.6757 14.6577C11.6761 14.0229 10.7677 13.1955 9.89648 12.125C9.47436 11.5915 9.1907 11.1424 8.98471 10.6865C9.2349 10.4576 9.46855 10.2205 9.69562 9.99012L9.76816 9.91653C9.81543 9.86926 9.86271 9.82114 9.90999 9.77302C9.95726 9.7249 10.0045 9.67677 10.0518 9.6295C10.761 8.92035 10.761 8.00183 10.0518 7.29267L9.12992 6.37078C9.02524 6.26609 8.91717 6.15803 8.81587 6.04997C8.61325 5.8406 8.40051 5.62448 8.18101 5.42186C7.85345 5.09768 7.46172 4.92546 7.04974 4.92546C6.63776 4.92546 6.23928 5.09768 5.90159 5.42186L5.89484 5.42862L4.74669 6.5869C4.31444 7.01914 4.06793 7.54594 4.0139 8.15716C3.93285 9.14322 4.22326 10.0617 4.44614 10.6628C4.9932 12.1385 5.81041 13.5062 7.02948 14.9718C8.50857 16.7379 10.2882 18.1326 12.3211 19.1152C13.0978 19.4833 14.1345 19.919 15.2928 19.9932C15.3637 19.9966 15.438 20 15.5055 20C16.2856 20 16.9407 19.7197 17.454 19.1625C17.4557 19.1591 17.4582 19.1566 17.4608 19.1541C17.4633 19.1516 17.4658 19.149 17.4675 19.1456C17.6301 18.9487 17.8159 18.769 18.0114 18.58L18.0585 18.5344C18.2037 18.396 18.3523 18.2508 18.4975 18.0988C18.8318 17.751 19.0074 17.3457 19.0074 16.9304C19.0074 16.5116 18.8284 16.1098 18.4873 15.7721L16.6334 13.9114ZM17.8424 17.4673C17.7342 17.5838 17.6238 17.6911 17.5074 17.8043L17.4304 17.8793C17.2109 18.0887 16.988 18.3082 16.7786 18.5547C16.4376 18.9194 16.0357 19.0916 15.5089 19.0916C15.4583 19.0916 15.4042 19.0916 15.3536 19.0882C14.3506 19.0241 13.4186 18.6323 12.7196 18.298C10.8082 17.3728 9.12992 16.0591 7.73525 14.3943C6.58373 13.0064 5.81379 11.7232 5.30388 10.3454C4.98982 9.50455 4.87501 8.84943 4.92566 8.23146C4.95943 7.83636 5.11139 7.5088 5.39168 7.22851L6.5432 6.07698C6.70867 5.92165 6.88427 5.83722 7.05649 5.83722C7.26924 5.83722 7.44146 5.96555 7.54952 6.07361L7.55965 6.08374C7.76565 6.27622 7.96151 6.47546 8.1675 6.68821C8.22025 6.74265 8.27385 6.7971 8.32788 6.85198C8.38108 6.90602 8.43469 6.96048 8.48831 7.01577L9.4102 7.93766C9.76816 8.29562 9.76816 8.62655 9.4102 8.98451C9.37744 9.01727 9.34505 9.05004 9.31279 9.08268C9.24863 9.14758 9.18494 9.21202 9.11979 9.27492C8.83613 9.56534 8.56598 9.83549 8.27218 10.0989C8.26979 10.1013 8.2674 10.1033 8.26516 10.1051C8.26107 10.1085 8.25748 10.1114 8.2553 10.1158C7.96488 10.4062 8.01891 10.6898 8.0797 10.8823L8.08983 10.9127C8.32959 11.4936 8.66728 12.0406 9.18057 12.6924L9.18395 12.6957C10.116 13.8439 11.0987 14.7388 12.1826 15.4243C12.3211 15.5121 12.4629 15.583 12.598 15.6505C12.7196 15.7113 12.8344 15.7687 12.9323 15.8295C12.9391 15.8329 12.9458 15.8371 12.9526 15.8413C12.9593 15.8455 12.9661 15.8498 12.9728 15.8532C13.0877 15.9106 13.1957 15.9376 13.3072 15.9376C13.5874 15.9376 13.763 15.762 13.8205 15.7046L14.9754 14.5497C15.0902 14.4348 15.2725 14.2964 15.4853 14.2964C15.6946 14.2964 15.8669 14.4281 15.9715 14.5429L17.839 16.4103C18.1868 16.7548 18.1868 17.1094 17.8424 17.4673Z" fill="currentColor"></path><path d="M12.6351 7.80598C13.5199 7.95456 14.3236 8.3733 14.9652 9.01491C15.6068 9.65653 16.0222 10.4602 16.1742 11.345C16.2113 11.5679 16.4038 11.7232 16.6233 11.7232C16.6476 11.7232 16.6691 11.7205 16.6929 11.7175L16.701 11.7164C16.9509 11.6759 17.1163 11.4395 17.0758 11.1896C16.8934 10.1192 16.3869 9.14324 15.6136 8.36992C14.8403 7.59661 13.8643 7.09007 12.7939 6.90772C12.544 6.8672 12.311 7.03266 12.2671 7.27918C12.2232 7.52569 12.3853 7.76545 12.6351 7.80598Z" fill="currentColor"></path><path d="M17.562 6.41469C18.8385 7.69116 19.6692 9.2952 19.9698 11.0579C20.0137 11.3045 19.8448 11.5408 19.5983 11.578C19.5956 11.5783 19.5929 11.5787 19.5902 11.579C19.5665 11.582 19.5449 11.5847 19.5207 11.5847C19.3012 11.5847 19.1087 11.4294 19.0715 11.2065C18.8048 9.63289 18.0618 8.1977 16.9204 7.0563C15.779 5.91828 14.3439 5.17199 12.7702 4.90521C12.5203 4.86131 12.3548 4.6283 12.3954 4.37841C12.4393 4.1319 12.6723 3.96305 12.9188 4.00695C14.6815 4.3075 16.2856 5.13822 17.562 6.41469Z" stroke="currentColor" stroke-width="0.6"></path><path fill-rule="evenodd" clip-rule="evenodd" d="M16.6334 13.9114C16.3059 13.5704 15.9108 13.388 15.492 13.388C15.0767 13.388 14.6782 13.567 14.3371 13.908L13.27 14.9718C13.212 14.9405 13.154 14.9108 13.0969 14.8815C13.0677 14.8665 13.0386 14.8516 13.01 14.8367C12.8884 14.7759 12.7736 14.7185 12.6757 14.6577C11.6761 14.0229 10.7677 13.1955 9.89648 12.125C9.47436 11.5915 9.1907 11.1424 8.98471 10.6865C9.2349 10.4576 9.46855 10.2205 9.69562 9.99012L9.76816 9.91653C9.81543 9.86926 9.86271 9.82114 9.90999 9.77302C9.95726 9.7249 10.0045 9.67677 10.0518 9.6295C10.761 8.92035 10.761 8.00183 10.0518 7.29267L9.12992 6.37078C9.02524 6.26609 8.91717 6.15803 8.81587 6.04997C8.61325 5.8406 8.40051 5.62448 8.18101 5.42186C7.85345 5.09768 7.46172 4.92546 7.04974 4.92546C6.63776 4.92546 6.23928 5.09768 5.90159 5.42186L5.89484 5.42862L4.74669 6.5869C4.31444 7.01914 4.06793 7.54594 4.0139 8.15716C3.93285 9.14322 4.22326 10.0617 4.44614 10.6628C4.9932 12.1385 5.81041 13.5062 7.02948 14.9718C8.50857 16.7379 10.2882 18.1326 12.3211 19.1152C13.0978 19.4833 14.1345 19.919 15.2928 19.9932C15.3637 19.9966 15.438 20 15.5055 20C16.2856 20 16.9407 19.7197 17.454 19.1625C17.4557 19.1591 17.4582 19.1566 17.4608 19.1541C17.4633 19.1516 17.4658 19.149 17.4675 19.1456C17.6301 18.9487 17.8159 18.769 18.0114 18.58L18.0585 18.5344C18.2037 18.396 18.3523 18.2508 18.4975 18.0988C18.8318 17.751 19.0074 17.3457 19.0074 16.9304C19.0074 16.5116 18.8284 16.1098 18.4873 15.7721L16.6334 13.9114ZM17.8424 17.4673C17.7342 17.5838 17.6238 17.6911 17.5074 17.8043L17.4304 17.8793C17.2109 18.0887 16.988 18.3082 16.7786 18.5547C16.4376 18.9194 16.0357 19.0916 15.5089 19.0916C15.4583 19.0916 15.4042 19.0916 15.3536 19.0882C14.3506 19.0241 13.4186 18.6323 12.7196 18.298C10.8082 17.3728 9.12992 16.0591 7.73525 14.3943C6.58373 13.0064 5.81379 11.7232 5.30388 10.3454C4.98982 9.50455 4.87501 8.84943 4.92566 8.23146C4.95943 7.83636 5.11139 7.5088 5.39168 7.22851L6.5432 6.07698C6.70867 5.92165 6.88427 5.83722 7.05649 5.83722C7.26924 5.83722 7.44146 5.96555 7.54952 6.07361L7.55965 6.08374C7.76565 6.27622 7.96151 6.47546 8.1675 6.68821C8.22025 6.74265 8.27385 6.7971 8.32788 6.85198C8.38108 6.90602 8.43469 6.96048 8.48831 7.01577L9.4102 7.93766C9.76816 8.29562 9.76816 8.62655 9.4102 8.98451C9.37744 9.01727 9.34505 9.05004 9.31279 9.08268C9.24863 9.14758 9.18494 9.21202 9.11979 9.27492C8.83613 9.56534 8.56598 9.83549 8.27218 10.0989C8.26979 10.1013 8.2674 10.1033 8.26516 10.1051C8.26107 10.1085 8.25748 10.1114 8.2553 10.1158C7.96488 10.4062 8.01891 10.6898 8.0797 10.8823L8.08983 10.9127C8.32959 11.4936 8.66728 12.0406 9.18057 12.6924L9.18395 12.6957C10.116 13.8439 11.0987 14.7388 12.1826 15.4243C12.3211 15.5121 12.4629 15.583 12.598 15.6505C12.7196 15.7113 12.8344 15.7687 12.9323 15.8295C12.9391 15.8329 12.9458 15.8371 12.9526 15.8413C12.9593 15.8455 12.9661 15.8498 12.9728 15.8532C13.0877 15.9106 13.1957 15.9376 13.3072 15.9376C13.5874 15.9376 13.763 15.762 13.8205 15.7046L14.9754 14.5497C15.0902 14.4348 15.2725 14.2964 15.4853 14.2964C15.6946 14.2964 15.8669 14.4281 15.9715 14.5429L17.839 16.4103C18.1868 16.7548 18.1868 17.1094 17.8424 17.4673Z" stroke="currentColor" stroke-width="0.6"></path><path d="M12.6351 7.80598C13.5199 7.95456 14.3236 8.3733 14.9652 9.01491C15.6068 9.65653 16.0222 10.4602 16.1742 11.345C16.2113 11.5679 16.4038 11.7232 16.6233 11.7232C16.6476 11.7232 16.6691 11.7205 16.6929 11.7175L16.701 11.7164C16.9509 11.6759 17.1163 11.4395 17.0758 11.1896C16.8934 10.1192 16.3869 9.14324 15.6136 8.36992C14.8403 7.59661 13.8643 7.09007 12.7939 6.90772C12.544 6.8672 12.311 7.03266 12.2671 7.27918C12.2232 7.52569 12.3853 7.76545 12.6351 7.80598Z" stroke="currentColor" stroke-width="0.6"></path></svg>