<svg xmlns="http://www.w3.org/2000/svg" width="24" height="24" viewBox="0 0 24 24" fill="none" class=""><path fill="currentColor" d="M16.2 3.25C17.1665 3.25 17.95 4.0335 17.95 5V17C17.95 17.9665 17.1665 18.75 16.2 18.75H8.8C7.8335 18.75 7.05 17.9665 7.05 17V15H8.55V17C8.55 17.1381 8.66193 17.25 8.8 17.25H16.2C16.3381 17.25 16.45 17.1381 16.45 17V5C16.45 4.86193 16.3381 4.75 16.2 4.75H8.8C8.66193 4.75 8.55 4.86193 8.55 5V6.99998H7.05V5C7.05 4.0335 7.8335 3.25 8.8 3.25H16.2Z"></path><path fill="currentColor" d="M9.96967 9.03031C9.67678 8.73742 9.67677 8.26255 9.96967 7.96966C10.2626 7.67676 10.7374 7.67676 11.0303 7.96965L13.5303 10.4696C13.671 10.6103 13.75 10.801 13.75 10.9999C13.75 11.1989 13.671 11.3896 13.5303 11.5303L11.0303 14.0303C10.7374 14.3232 10.2626 14.3232 9.96967 14.0303C9.67678 13.7374 9.67677 13.2625 9.96967 12.9697L11.1894 11.7499H5C4.58579 11.7499 4.25 11.4142 4.25 10.9999C4.25 10.5857 4.58579 10.2499 5 10.2499H11.1893L9.96967 9.03031Z"></path></svg>