<svg width="14" height="14" viewBox="0 0 14 14" fill="#000" xmlns="http://www.w3.org/2000/svg"><path fill-rule="evenodd" clip-rule="evenodd" d="M11.4406 10.3108C13.392 7.80345 13.2153 4.17663 10.9107 1.87197C8.4147 -0.623991 4.36794 -0.623991 1.87197 1.87197C-0.623991 4.36794 -0.623991 8.4147 1.87197 10.9107C4.17662 13.2153 7.80344 13.392 10.3108 11.4406L12.3058 13.5368C12.6152 13.8619 13.1317 13.8683 13.449 13.551C13.7555 13.2445 13.7616 12.7495 13.4628 12.4356L11.4406 10.3108ZM9.7857 9.77595C11.6528 7.90359 11.6512 4.87216 9.78083 3.00181C7.90886 1.12984 4.87379 1.12984 3.00181 3.00181C1.12984 4.87379 1.12984 7.90886 3.00181 9.78083C4.87216 11.6512 7.90359 11.6528 9.77595 9.7857C9.77758 9.78408 9.77921 9.78246 9.78083 9.78083C9.78245 9.77921 9.78408 9.77758 9.7857 9.77595Z"></path></svg>