<svg xmlns="http://www.w3.org/2000/svg" width="24" height="24" viewBox="0 0 24 24" fill="none" class="styles_svg__2H3-f"><path fill-rule="evenodd" clip-rule="evenodd" d="M19.221 6.39153C20.0006 6.60235 20.6152 7.21976 20.8251 8.00282C21.2149 9.43341 21.1999 12.4151 21.1999 12.4151C21.1999 12.4151 21.1999 15.3816 20.8251 16.8122C20.6152 17.5953 20.0006 18.2127 19.221 18.4235C17.7968 18.8 12.1 18.8 12.1 18.8C12.1 18.8 6.41811 18.8 4.9789 18.4085C4.19934 18.1976 3.58468 17.5802 3.37479 16.7972C3 15.3816 3 12.4 3 12.4C3 12.4 3 9.43341 3.37479 8.00282C3.58468 7.21976 4.21433 6.58729 4.9789 6.37647C6.40312 6 12.1 6 12.1 6C12.1 6 17.7968 6 19.221 6.39153ZM15.0234 12.4L10.286 15.1407V9.6593L15.0234 12.4Z" fill="#FF2638"></path></svg>